<svg width="12" height="8" fill="none" xmlns="http://www.w3.org/2000/svg"><path d="M9.637 3.37l-2.51-2.28a.634.634 0 01-.16-.205.581.581 0 01.142-.7.702.702 0 01.23-.14.754.754 0 01.541.01.695.695 0 01.225.145l3.692 3.355c.13.118.203.278.203.445a.601.601 0 01-.203.445L8.105 7.8a.695.695 0 01-.225.146.751.751 0 01-.771-.13.628.628 0 01-.152-.21.579.579 0 01.01-.491.634.634 0 01.16-.204l2.51-2.282H.692a.73.73 0 01-.49-.184A.601.601 0 010 4c0-.167.073-.327.203-.445a.73.73 0 01.49-.184h8.944z" fill="#fff"/></svg>