<svg width="369" height="37" fill="none" xmlns="http://www.w3.org/2000/svg"><path d="M294.507 10.78V9.672h2.632c.569 0 1.008-.144 1.316-.434.308-.29.462-.681.462-1.176 0-.466-.154-.854-.462-1.162-.299-.308-.733-.462-1.302-.462h-2.646V5.291h2.688c.616 0 1.152.122 1.61.364.457.234.807.556 1.05.966.252.41.378.882.378 1.414 0 .55-.126 1.032-.378 1.442-.243.41-.593.733-1.05.966-.458.224-.994.336-1.61.336h-2.688zm-.882 4.227V5.291h1.316v9.716h-1.316zm5.6 0l-3.528-4.354 1.246-.434 3.948 4.788h-1.666zm5.267 0V5.291h1.316v9.716h-1.316zm.896 0v-1.204h5.572v1.204h-5.572zm0-4.396V9.463h5.11v1.148h-5.11zm0-4.116V5.291h5.502v1.204h-5.502zm13.806 8.652c-.7 0-1.348-.126-1.946-.378a4.952 4.952 0 01-1.568-1.078 4.937 4.937 0 01-1.022-1.596 5.203 5.203 0 01-.364-1.946c0-.7.122-1.353.364-1.96a4.778 4.778 0 012.576-2.646 4.804 4.804 0 011.946-.392c.766 0 1.438.13 2.016.392a5.164 5.164 0 011.54 1.064l-.91.91a3.233 3.233 0 00-1.134-.812c-.438-.196-.942-.294-1.512-.294-.513 0-.984.094-1.414.28a3.216 3.216 0 00-1.12.77 3.632 3.632 0 00-.742 1.19 4.313 4.313 0 00-.252 1.498c0 .542.084 1.04.252 1.498.178.458.425.854.742 1.19.318.336.691.598 1.12.784.43.178.901.266 1.414.266.607 0 1.134-.098 1.582-.294.448-.205.826-.48 1.134-.826l.91.896c-.448.467-.975.83-1.582 1.092-.597.262-1.274.392-2.03.392zm8.351-4.368V9.673h2.632c.569 0 1.008-.144 1.316-.434.308-.29.462-.681.462-1.176 0-.466-.154-.854-.462-1.162-.299-.308-.733-.462-1.302-.462h-2.646V5.291h2.688c.616 0 1.153.122 1.61.364.457.234.807.556 1.05.966.252.41.378.882.378 1.414 0 .55-.126 1.032-.378 1.442-.243.41-.593.733-1.05.966-.457.224-.994.336-1.61.336h-2.688zm-.882 4.228V5.291h1.316v9.716h-1.316zm5.6 0l-3.528-4.354 1.246-.434 3.948 4.788h-1.666zm8.88.14c-.719 0-1.363-.158-1.932-.476a3.63 3.63 0 01-1.33-1.33c-.327-.57-.49-1.213-.49-1.932V5.291h1.316v6.09c0 .514.107.957.322 1.33.214.374.504.663.868.868.373.206.788.308 1.246.308.476 0 .891-.102 1.246-.308.364-.205.648-.494.854-.868.214-.373.322-.812.322-1.316V5.291h1.33v6.132c0 .719-.164 1.358-.49 1.918a3.638 3.638 0 01-1.33 1.33c-.56.318-1.204.476-1.932.476zm8.156-.14V5.291h1.316v9.716h-1.316zm8.426 0V5.571h1.316v9.436h-1.316zm-3.304-8.512V5.291h7.91v1.204h-7.91zm-58.094 26.652c-.766 0-1.419-.14-1.96-.42a4.426 4.426 0 01-1.442-1.218l.896-.896c.308.43.662.756 1.064.98.401.215.896.322 1.484.322.578 0 1.04-.126 1.386-.378.354-.252.532-.597.532-1.036 0-.364-.084-.658-.252-.882a1.84 1.84 0 00-.686-.546 5.98 5.98 0 00-.924-.392 43.894 43.894 0 01-1.008-.378 4.873 4.873 0 01-.924-.504 2.376 2.376 0 01-.686-.798c-.168-.326-.252-.737-.252-1.232 0-.55.13-1.017.392-1.4.27-.392.634-.69 1.092-.896a3.707 3.707 0 011.568-.322c.634 0 1.204.126 1.708.378a3.46 3.46 0 011.232.966l-.896.896a3.054 3.054 0 00-.938-.756 2.448 2.448 0 00-1.134-.252c-.523 0-.938.117-1.246.35-.308.224-.462.542-.462.952 0 .327.084.593.252.798.177.196.406.364.686.504s.588.27.924.392c.345.112.686.238 1.022.378.336.14.644.318.924.532.28.215.504.495.672.84.177.336.266.76.266 1.274 0 .859-.299 1.53-.896 2.016-.588.486-1.386.728-2.394.728zm7.303-.14v-9.716h1.316v9.716h-1.316zm8.426 0v-9.436h1.316v9.436h-1.316zm-3.304-8.512v-1.204h7.91v1.204h-7.91zm11.718 8.512v-9.716h1.316v9.716h-1.316zm.896 0v-1.204h5.572v1.204h-5.572zm0-4.396v-1.148h5.11v1.148h-5.11zm0-4.116v-1.204h5.502v1.204h-5.502zM.418 18.559c8.407 3.187 16.747 6.588 25.205 9.644 2.324.84 4.656 2.178 7.1.955l27.82-10.571c.605-.054.436 1.928.422 2.38-.005.22-.093.414-.107.616-.13 2.1.116 2.963-2.028 3.952-8.72 2.957-17.372 7.213-26.106 10.012-2.617.838-3.766.52-6.276-.337-8.37-2.859-16.705-6.558-24.991-9.68C.646 25.1.25 24.32.158 23.423.057 22.46.015 19.928.142 19c.028-.208.064-.357.278-.444l-.002.003zm60.336-.841l-.312-.05c-8.847-3.291-17.547-7.429-26.406-10.642-2.205-.8-2.884-.874-5.137-.132L.404 17.716c-.13-.012-.34-1.366-.358-1.597-.107-1.425-.127-4.028 1.082-4.995C10.555 7.23 20.188 3.69 29.758.13c1.347-.346 2.614.067 3.87.511 8.075 2.859 16.057 6.828 24.104 9.846 1.166.658 2.35 1.538 2.84 2.834.534 1.41.343 2.937.185 4.398h-.003z" fill="#fff"/><path d="M38.588 15.11c-.631-.531-.535-.866-1.642-.987-.594-.064-3.096.11-2.406 1.164.57.866 5.557.987 6.788 1.262 2.682.604 5.132 2.875 3.363 5.695-1.836 2.923-8.016 2.819-11.024 2.364-2.11-.318-4.664-1.24-4.718-3.73l.285-.144c1.769.14 3.82-.323 5.54-.118.983.116 1.166.922 2.279 1.023 1.952.175 3.892-.941 1.11-1.83-2.597-.829-8.884.051-9.216-3.99-.307-3.703 4.472-4.36 7.176-4.492 2.76-.133 6.386-.13 7.985 2.549.49.818.758 1.366-.44 1.478-1.044.099-3.418.113-4.447 0-.2-.022-.484-.112-.636-.241l.003-.003zm-19.987-3.342c1.248-.23 2.904.275 4.214.073l.44.284.02 11.313c-.049.4-.12.678-.533.807-1.06.329-3.096-.101-4.265.067-.383-.07-.45-.53-.47-.868.228-3.508-.287-7.362 0-10.827.042-.498.062-.748.597-.846l-.003-.003z" fill="#fff"/><path d="M26.034 16.096c2.656-.432 3.301 3.638.777 4.073-2.847.492-3.467-3.631-.777-4.073zm175.103-2.269c-.223-.06-.576-.687-.6-.939-.043-.459.341-.83.338-1.082 0-.155-.204-.352-.229-.568-.082-.802.871-1.298 1.313-1.878.74-.976.597-2.286 2.11-2.082.707.094 1.124.896.762 1.538h.837c-.289-2.365 2.945-2.483 2.509 0 .153.155 3.624-.158 4.334.06 1.194.374.533 2.164.064 2.164h-4.395v.557h4.395c.907 0 1.044 2.227.14 2.227h-4.535v.556h3.557c.14 0 .652.477.75.645.526.923.548 3.565-.689 4.026l.448 1.155 9.227.049c1.285.286.807 2.337.031 2.337h-2.022c1.218 1.55-.707 2.407-1.812 3.13.228.48 3.551 1.261 4.047 1.805.542.593.271 1.952-.521 2.13-.889.204-3.021-.777-3.901-1.197-2.552-1.215-5.457-3.124-6.468-5.865-.207-.058-.326.021-.487.128-.649.422-1.386 1.586-2.157 2.024v2.018c1.078-.192 3.816-1.593 4.666-.69.682.726.344 1.598-.481 2.012-1.072.538-5.646 1.793-6.77 1.747-1.976-.079-1.894-2.319.012-2.504l.061-1.121c-1.264.422-5.031 2.14-6.097 1.072-.414-.413-.39-1.3.006-1.726.311-.334 2.61-.766 3.271-.982 1.328-.431 2.768-1.03 3.801-1.984h-6.487c-.776 0-1.258-2.051.031-2.337l9.227-.049.438-1.094c-2.174.034-1.705-2.693.421-2.228v-.416h-2.092v2.714c0 .723-1.639 1.04-2.163.486-.058-.06-.35-.723-.35-.765v-2.438h-2.092V18.9c0 .668-2.065 1.063-2.342-.17-.146-.648-.097-3.189.247-3.733.082-.133.67-.623.77-.623h3.417v-.556h-4.534l-.006.01zm4.531-2.784h-2.232c-.031 0-.134.453-.28.557h2.509v-.557h.003zm11.996 11.555h-4.045c.482.65 1.005 1.28 1.739 1.669.497.012 1.961-1.225 2.306-1.669zm-33.614-5.291v1.252h7.881c.993 0 .819 2.228.14 2.228h-8.021v1.112h9.136c1.196 0 1.239 2.55-.272 2.374l-20.504-.016c-1.401-.218-1.05-2.358-.009-2.358h8.996v-1.112h-7.741c-.893 0-.734-2.228 0-2.228h7.741v-1.252h-6.487c-.152 0-.755-.459-.886-.647-.259-.371-.396-1.067-.438-1.514-.113-1.21-.143-5.434.268-6.412.329-.784 1.404-.979 2.168-1.04 3.636-.285 9.605-.246 13.262 0 1.2.082 2.23.164 2.562 1.483.289 1.158.289 5.635 0 6.793-.119.477-.664 1.337-1.173 1.337h-6.627.004zm-2.65-7.24h-4.952c-.383.332-.158.934-.21 1.393h5.162v-1.392zm7.948 1.393c-.051-.46.174-1.06-.21-1.392h-5.092v1.392h5.302zm-7.948 2.227h-5.162c.052.46-.173 1.061.21 1.392h4.952v-1.392zm7.948 0h-5.302v1.392h5.092c.384-.33.159-.933.21-1.392zm-37.381 6.403h9.833c.905 0 1.742.712 1.87 1.615.158 1.103.155 4.856 0 5.962-.189 1.34-1.267 1.532-2.424 1.62-2.908.219-7.991.237-10.884-.006-.445-.036-1.319-.173-1.657-.434-.195-.152-.646-.994-.646-1.165v-3.965c-.956.656-3.532 2.777-4.531 1.388-1.093-1.522 1.346-2.382 2.26-3.027 1.653-1.17 3.283-2.464 4.361-4.209h-5.65c-.773 0-1.349-2.109.29-2.358l20.297.052c1.115.255 1.102 1.768.171 2.276l-11.688.027c-.125 0-.195.061-.281.137-.31.276-.922 1.693-1.324 2.09l.003-.002zm-1.045 2.645l-.21.21v3.48l.21.209h9.904l.21-.21v-3.48l-.21-.21h-9.904zm119.051-5.568c-.07 3.708-.505 8.513-3.273 11.278-.71.712-1.892 1.125-2.659.28-1.066-1.17.35-2.067.971-2.942 3.247-4.57 1.742-9.02 2.178-14.114.1-1.19.307-1.96 1.501-2.4 1.194-.441 6.429-1.778 7.638-1.851 1.34-.08 1.973 1.164 1.188 2.127-.457.562-5.896 1.471-7.047 1.915-.214.082-.36.149-.494.343v2.854h7.461c.582 0 1.014.641 1.039 1.194.018.435-.49 1.31-.899 1.31h-2.162v11.625c0 .042-.292.693-.353.762-.518.593-2.436.286-2.436-.483v-11.9h-2.65l-.003.002zm-30.27-4.036l-1.7 2.69c-.819.97-1.927 3.057-3.514 2.167-1.587-.89.71-2.881 1.282-3.699.777-1.103 1.495-2.297 2.044-3.528.316-.714.937-2.897 1.321-3.273.67-.663 2.031-.39 2.205.595.174.985-.356 1.614-.524 2.544h8.579c.11 0 .533.365.612.502.463.802-.17 1.863-1.029 1.863h-6.627v2.783h5.509c1.556 0 1.346 2.368.417 2.368h-5.929v3.063h5.509c.128 0 .792.219.917.34.374.36.405 1.468-.012 1.815-.113.094-.932.352-1.042.352h-5.369v4.802c0 .116-.301.863-.411.982-.582.61-2.238.21-2.238-.426v-15.94zM73.516 15.01c.02-.077.402-.423.517-.46 1.788-.543 1.221 2.018 1.298 3.034.62-.01 1.346.02 1.745.556.533-.675.645-2.401 1.035-2.97.088-.127.551-.294.703-.313 1.203-.136 1.146 1.262.704 2.028h.838c-.546-3.24 2.38-3.277 1.811 0h2.72c.856 0 .734 1.671 0 1.671h-2.72v1.808h3.14c.396 0 1.042.435 1.036.906.006.471-.64.906-1.036.906h-2.72c.278.653.814 1.322 1.261 1.875.64.793 1.974 1.875 2.43 2.586.628.973-.331 1.73-1.315 1.313-.725-.307-2.083-2.444-2.792-2.99v4.105c0 .584-1.813.736-1.813-.14V24.82c-.806.741-2.874 4.248-4.178 3.127-1.005-.863.704-1.772 1.185-2.289.938-1.003 1.919-2.206 2.436-3.485H77.64c-.073 0-.29-.225-.487-.137.45.872-.777 1.437-1.392.9-.238-.207-.164-.572-.423-.624v6.613c0 .876-1.812.724-1.812.14v-5.637l-.88 1.35c-.628.495-1.657.36-1.648-.584.006-.614.59-1.11.877-1.645.554-1.033 1.057-2.09 1.374-3.224l-1.678-.14c-1.06-1.547.767-1.699 1.952-1.601.121-.693-.168-1.973 0-2.575h-.006zm4.461 5.36h2.372v-1.81c-1.73-.347-1.623.662-2.372 1.81zm-1.532-1.115h-1.117v.416c.718-.328 1.16 1.098 1.324 1.113.545.051-.167-.742-.182-.79-.067-.24-.022-.496-.028-.739h.003z" fill="#fff"/><path d="M259.65 21.622c-.113 1.201-.241 2.52-.567 3.684-.192.687-1.133 3.097-1.522 3.592-.57.723-2.272.572-2.488-.56-.116-.616.797-2.075 1.056-2.78 1.441-3.948.481-7.33.871-11.242.122-1.218.655-1.753 1.882-1.878 1.228-.124 4.182-.143 5.439 0 1.057.119 1.626.684 1.745 1.742.143 1.267.143 4.44 0 5.707-.304 2.711-4.543 1.447-6.416 1.739v-.004zm0-2.504h3.557l.21-.21V15.15l-.21-.21h-3.347l-.21.21v3.968zM156.151 11.74h5.302V9.164c0-1.158 2.54-1.52 2.78.01.116.723.08 3.36-.161 3.999-.323.85-1.02 1.018-1.849 1.079-4.82.355-10.07-.283-14.937 0-.993-.037-1.629-.541-1.815-1.529-.128-.672-.158-2.86.006-3.492.363-1.395 2.723-.909 2.723-.067v2.574h5.162V8.19c0-1.318 2.789-1.495 2.789.14v3.41zm74.766 6.123c-.649.881-1.812 1.839-2.927 1.04-1.498-1.073.975-3.015 1.666-3.9.953-1.228 1.846-2.638 2.497-4.05.594-1.286.963-4.097 2.814-3.605 1.541.41.722 2.145.344 3.133-.45 1.176-1.126 2.252-1.592 3.422-.287 4.662.353 9.72-.003 14.336-.083 1.082-.326 1.832-1.608 1.744-.451-.03-1.188-.444-1.188-.915V17.863h-.003zm-132.713-.556h1.675c-.35-.62-1.4-1.11-1.4-1.878-.007-2.2 4.162.456 2.795 1.878.457-.037.895.04 1.185.42.204.337.027 1.252-.421 1.252h-3.837c.058 2.027.192 4.1.871 6.02.107.298 1.063 2.644 1.499 2.331.091-.948.542-2.896 1.854-1.817.667.547-.268 3.254-1.029 3.683-2.19 1.237-3.837-2.638-4.273-4.203-.53-1.912-.73-4.04-.737-6.014h-8.298c-.689 0-.64-1.672.14-1.672h8.021v-2.298c0-.635 1.952-.617 1.952.28v2.018h.003zm6.764 6.403c-.837-.176-.871-1.504.003-1.665l13.034.07c.673.434.582 1.389-.234 1.568l-6.594.1-2.512 3.34c1.858.228 3.731-.203 5.579-.35.302-.242-2.342-1.932-.889-2.765.499-.285.81-.176 1.239.122.594.413 2.854 3.14 3.164 3.805.235.498.293.878-.161 1.28-1.212.406-1.404-.353-2.159-.995-.914.204-1.864.408-2.796.502-1.181.121-2.585.246-3.758.285-.892.03-4.364.39-3.63-1.255.21-.474.698-.334 1.039-.498.572-.274 2.104-2.92 2.655-3.544-1.142-.164-2.92.222-3.974 0h-.006zm26.713-5.011h2.443c1.184 0 1.069 1.671.417 1.671h-2.86v6.96h3.14c.49 0 1.112 1.54-.411 1.678-2.506.224-5.384-.152-7.93-.04-.764-.033-.621-1.635-.027-1.635h3.416v-6.96h-2.579c-.649 0-.767-1.671.417-1.671h2.162v-3.83c0-.285 1.669-1.102 1.822.55.094 1.04-.083 2.222-.007 3.277h-.003zm-16.039 1.115c.067.979-.512 1.052-1.322 1.119-1.489.124-4.678.155-6.127-.022-.844-.103-.996-.255-1.133-1.1-1.108.672-3.968 1.839-2.85-.617 1.693-.772 3.508-1.665 4.939-2.866.609-.51 1.614-1.92 2.375-1.923.762-.003.841.817 1.392 1.373 1.59 1.602 3.974 2.453 5.859 3.62.335.361.198.93-.213 1.173-.813.48-2.171-.41-2.92-.76v.003zm-1.398-.696c-.475-.313-2.519-2.227-2.863-2.227l-2.996 2.227h5.859z" fill="#fff"/><path d="M124.705 17.03c4.017-.276 1.486 2.736.548 4.514.624.4 3.018 1.872 2.104 2.799-.883.896-1.885-.73-2.652-.91v5.778c-.201.58-1.675.453-1.675 0v-5.358c-.834.255-1.596 1.587-2.546 1.085-.411-.219-.591-.586-.399-1.024.156-.35 2.232-1.68 2.756-2.197.786-.775 1.678-1.948 2.001-3.015h-4.254c-.329 0-.548-1.073-.15-1.404.503-.416 1.949-.219 2.592-.268v-2.157a1.149 1.149 0 011.675 0v2.157zm94.317-9.436c.749-.164 1.763-.122 1.964.766-.204 2.841.39 6.36-.006 9.12-.097.687-.478 1.474-1.12 1.805-.765.39-2.516.402-3.347.222-1.115-.243-1.191-2.285.262-2.47.63-.08 1.37.489 1.586-.36.204-2.58-.259-5.533.003-8.068.049-.474.137-.9.658-1.015zM93.182 22.458v3.76c.92.018 2.897-1.11 3.621-.484.515.441.338 1.131-.237 1.426-.938.48-5.683 1.58-6.819 1.683-.84.076-2.064.055-1.702-1.14.213-.701 2.659-.765 3.322-1.072v-4.176h-2.442c-.043 0-.426-.398-.46-.516-.25-.812.31-1.098 1.011-1.161 1.974-.18 4.248.121 6.255.036 1.048.243.61 1.641.03 1.641h-2.579v.003zM256.54 8.15l9.867-.021c1.228.191 1.237 2.274-.14 2.49-2.936-.268-6.617.392-9.465-.006-1.461-.204-1.419-2.204-.262-2.466v.003z" fill="#fff"/><path d="M214.695 8.43c1.072-.25 1.863.009 1.991 1.152.128 1.142.153 4.783-.033 5.813-.122.675-.637 1.052-1.307 1.064-1.05.021-1.358-.684-1.446-1.59-.122-1.227-.128-3.917.015-5.132.061-.514.201-1.174.783-1.307h-.003zm-40.172 16.007c1.368-.313 2.153.638 1.645 1.917-.213.532-1.803 2.915-2.229 3.204-1.206.808-2.842-.274-2.05-1.77.177-.333.493-.522.7-.829.424-.629 1.286-2.373 1.937-2.522h-.003zm15.907 0c1.239-.2 2.095 1.203 2.658 2.154.405.684 1.243 2.058.359 2.672-1.659 1.155-2.46-.994-3.203-2.06-.32-.463-.682-.5-.759-1.192-.085-.778.095-1.434.948-1.571l-.003-.003zm-11.363.288c.597-.483 2.016-.167 2.269.648.137.44.256 2.367.189 2.847-.262 1.897-2.568 1.94-2.775-.127-.064-.645-.137-3.003.317-3.368zm5.64-.149c.819-.185 1.413.064 1.785.806.228.453.898 2.54.91 3 .034 1.37-1.876 1.659-2.485.516-.128-.24-.996-2.68-1.014-2.89-.058-.623.137-1.28.804-1.431z" fill="#fff"/></svg>