<svg width="30" height="30" fill="none" xmlns="http://www.w3.org/2000/svg"><path d="M23.32 15v8.906a.938.938 0 01-.937.938H4.57a.938.938 0 01-.937-.938V6.094a.937.937 0 01.937-.938h15.22a.937.937 0 010 1.875H5.508V22.97h15.937V15a.938.938 0 011.875 0zm2.786-8.852a.938.938 0 00-1.326-.027L13.92 16.546l-2.68-4.596a.937.937 0 00-1.62.944l3.281 5.625a.939.939 0 001.46.204l11.718-11.25a.938.938 0 00.027-1.325z" fill="url(#paint0_linear_226_3312)"/><defs><linearGradient id="paint0_linear_226_3312" x1="3.19" y1="8.438" x2="27.578" y2="8.571" gradientUnits="userSpaceOnUse"><stop stop-color="#0087C1"/><stop offset="1" stop-color="#033FC2"/></linearGradient></defs></svg>