<svg width="29" height="28" viewBox="0 0 29 28" fill="none" xmlns="http://www.w3.org/2000/svg">
<path d="M16.8269 11.6291H13.7495C13.669 11.632 13.5887 11.6186 13.5135 11.5897C13.4383 11.5609 13.3696 11.5172 13.3117 11.4612C13.2537 11.4052 13.2076 11.3382 13.1761 11.264C13.1446 11.1898 13.1284 11.1101 13.1284 11.0295C13.1284 10.9489 13.1446 10.8692 13.1761 10.795C13.2076 10.7208 13.2537 10.6538 13.3117 10.5978C13.3696 10.5419 13.4383 10.4982 13.5135 10.4693C13.5887 10.4404 13.669 10.427 13.7495 10.4299L18.275 10.4299C18.434 10.43 18.5865 10.4932 18.6989 10.6056C18.8113 10.718 18.8746 10.8705 18.8747 11.0295L18.8747 15.555C18.8775 15.6355 18.8641 15.7158 18.8352 15.791C18.8064 15.8662 18.7627 15.9349 18.7067 15.9929C18.6507 16.0508 18.5837 16.0969 18.5095 16.1284C18.4353 16.1599 18.3556 16.1762 18.275 16.1762C18.1945 16.1762 18.1147 16.1599 18.0405 16.1284C17.9664 16.0969 17.8993 16.0508 17.8433 15.9929C17.7874 15.9349 17.7437 15.8662 17.7148 15.791C17.686 15.7158 17.6726 15.6355 17.6754 15.555L17.6754 12.4777L12.1939 17.9592C12.0814 18.0717 11.9288 18.1349 11.7696 18.1349C11.6105 18.1349 11.4579 18.0717 11.3454 17.9592C11.2329 17.8466 11.1696 17.694 11.1696 17.5349C11.1696 17.3758 11.2329 17.2231 11.3454 17.1106L16.8269 11.6291Z" fill="#2B2F38"/>
</svg>
