<svg width="12" height="8" viewBox="0 0 12 8" fill="none" xmlns="http://www.w3.org/2000/svg">
<path d="M9.63741 3.3709L7.12652 1.08936C7.05849 1.03176 7.00393 0.962311 6.96609 0.885142C6.92825 0.807973 6.90791 0.724668 6.90627 0.640198C6.90463 0.555729 6.92173 0.471825 6.95655 0.393491C6.99137 0.315157 7.0432 0.243998 7.10894 0.184259C7.17469 0.12452 7.253 0.0774261 7.33921 0.0457856C7.42541 0.014145 7.51775 -0.00139269 7.61071 9.78958e-05C7.70368 0.00158801 7.79535 0.0200759 7.88028 0.0544602C7.96521 0.0888444 8.04164 0.138419 8.10503 0.200227L11.7975 3.55543C11.9272 3.67339 12 3.83329 12 4C12 4.16671 11.9272 4.32661 11.7975 4.44456L8.10503 7.79977C8.04164 7.86158 7.96521 7.91115 7.88028 7.94554C7.79535 7.97992 7.70368 7.99841 7.61071 7.9999C7.51775 8.00139 7.42541 7.98585 7.33921 7.95421C7.253 7.92257 7.17469 7.87548 7.10894 7.81574C7.0432 7.756 6.99137 7.68484 6.95655 7.60651C6.92173 7.52817 6.90463 7.44427 6.90627 7.3598C6.90791 7.27533 6.92825 7.19203 6.96609 7.11486C7.00393 7.03769 7.05849 6.96824 7.12652 6.91064L9.63741 4.6291L0.692343 4.6291C0.508722 4.6291 0.332622 4.56282 0.202782 4.44484C0.072943 4.32686 0 4.16685 0 4C0 3.83315 0.072943 3.67314 0.202782 3.55516C0.332622 3.43718 0.508722 3.3709 0.692343 3.3709L9.63741 3.3709Z" fill="#222426"/>
</svg>
