<svg width="30" height="30" viewBox="0 0 30 30" fill="none" xmlns="http://www.w3.org/2000/svg">
<path d="M23.3203 15V23.9062C23.3203 24.1549 23.2215 24.3933 23.0457 24.5692C22.8699 24.745 22.6315 24.8438 22.3828 24.8438H4.57031C4.32167 24.8438 4.08322 24.745 3.9074 24.5692C3.73158 24.3933 3.63281 24.1549 3.63281 23.9062V6.09375C3.63281 5.84511 3.73158 5.60665 3.9074 5.43084C4.08322 5.25502 4.32167 5.15625 4.57031 5.15625H19.7889C20.0375 5.15625 20.276 5.25502 20.4518 5.43084C20.6276 5.60665 20.7264 5.84511 20.7264 6.09375C20.7264 6.34239 20.6276 6.58085 20.4518 6.75666C20.276 6.93248 20.0375 7.03125 19.7889 7.03125H5.50781V22.9688H21.4453V15C21.4453 14.7514 21.5441 14.5129 21.7199 14.3371C21.8957 14.1613 22.1342 14.0625 22.3828 14.0625C22.6315 14.0625 22.8699 14.1613 23.0457 14.3371C23.2215 14.5129 23.3203 14.7514 23.3203 15ZM26.106 6.14752C25.9337 5.96839 25.6973 5.86495 25.4488 5.85989C25.2002 5.85482 24.9598 5.94856 24.7803 6.12052L13.9208 16.5459L11.2396 11.9495C11.1137 11.7359 10.9083 11.5809 10.6685 11.5184C10.4286 11.4558 10.1737 11.4909 9.95957 11.6158C9.74544 11.7407 9.58951 11.9453 9.52588 12.1849C9.46226 12.4245 9.49612 12.6796 9.62006 12.8943L12.9013 18.5193C12.9728 18.6418 13.0711 18.7464 13.1889 18.8255C13.3067 18.9045 13.4408 18.9558 13.5813 18.9755C13.6243 18.9814 13.6677 18.9844 13.7111 18.9844C13.9531 18.9843 14.1858 18.8908 14.3604 18.7232L26.0792 7.47323C26.2585 7.30096 26.362 7.06454 26.3671 6.81594C26.3721 6.56734 26.2782 6.32691 26.106 6.14752Z" fill="url(#paint0_linear_226_3312)"/>
<defs>
<linearGradient id="paint0_linear_226_3312" x1="3.18993" y1="8.4375" x2="27.5782" y2="8.57082" gradientUnits="userSpaceOnUse">
<stop stop-color="#0087C1"/>
<stop offset="1" stop-color="#033FC2"/>
</linearGradient>
</defs>
</svg>
