<svg width="50" height="50" viewBox="0 0 50 50" fill="none" xmlns="http://www.w3.org/2000/svg">
<rect width="50" height="50" rx="25" fill="white"/>
<path d="M29.189 20.766L23.6938 20.766C23.55 20.7711 23.4067 20.7471 23.2723 20.6956C23.138 20.6441 23.0154 20.566 22.9119 20.4661C22.8084 20.3662 22.726 20.2464 22.6698 20.114C22.6136 19.9815 22.5846 19.8391 22.5846 19.6952C22.5846 19.5514 22.6136 19.4089 22.6698 19.2765C22.726 19.1441 22.8084 19.0243 22.9119 18.9244C23.0154 18.8244 23.138 18.7464 23.2723 18.6949C23.4067 18.6433 23.55 18.6194 23.6938 18.6245L31.775 18.6245C32.0589 18.6246 32.3312 18.7375 32.532 18.9383C32.7327 19.1391 32.8456 19.4113 32.8458 19.6952L32.8458 27.7765C32.8509 27.9202 32.8269 28.0636 32.7754 28.1979C32.7239 28.3323 32.6458 28.4549 32.5459 28.5584C32.4459 28.6619 32.3262 28.7442 32.1938 28.8005C32.0613 28.8567 31.9189 28.8857 31.775 28.8857C31.6311 28.8857 31.4887 28.8567 31.3563 28.8005C31.2238 28.7442 31.1041 28.6619 31.0042 28.5584C30.9042 28.4549 30.8262 28.3323 30.7746 28.1979C30.7231 28.0636 30.6992 27.9202 30.7043 27.7765V22.2812L20.9159 32.0696C20.7149 32.2705 20.4424 32.3834 20.1583 32.3834C19.8741 32.3834 19.6016 32.2705 19.4007 32.0696C19.1997 31.8687 19.0868 31.5961 19.0868 31.312C19.0868 31.0278 19.1997 30.7553 19.4007 30.5544L29.189 20.766Z" fill="#413C37"/>
</svg>
